<?xml version="1.0" encoding="UTF-8"?>
<svg width="17px" height="17px" viewBox="0 0 17 17" version="1.1" xmlns="http://www.w3.org/2000/svg" xmlns:xlink="http://www.w3.org/1999/xlink">
    <!-- Generator: Sketch 52.3 (67297) - http://www.bohemiancoding.com/sketch -->
    <title>add</title>
    <desc>Created with Sketch.</desc>
    <g id="Page-1" stroke="none" stroke-width="1" fill="none" fill-rule="evenodd">
        <g id="Staff---1" transform="translate(-1388.000000, -96.000000)" fill="#9B9B9B" fill-rule="nonzero">
            <g id="Icons-/-Nav-/-Upload-/-Nromal" transform="translate(1388.000000, 96.000000)">
                <path d="M14.14,7.5 L14.14,5.82 L10.82,5.82 L10.82,2.5 L9.14,2.5 L9.14,5.82 L5.82,5.82 L5.82,7.5 L9.14,7.5 L9.14,10.82 L10.82,10.82 L10.82,7.5 L14.14,7.5 Z M15,0 C15.4533356,0 15.8399984,0.1599984 16.16,0.48 C16.4800016,0.8000016 16.64,1.1866644 16.64,1.64 L16.64,11.64 C16.64,12.0933356 16.4800016,12.486665 16.16,12.82 C15.8399984,13.153335 15.4533356,13.32 15,13.32 L5,13.32 C4.5466644,13.32 4.153335,13.153335 3.82,12.82 C3.486665,12.486665 3.32,12.0933356 3.32,11.64 L3.32,1.64 C3.32,1.1866644 3.486665,0.8000016 3.82,0.48 C4.153335,0.1599984 4.5466644,0 5,0 L15,0 Z M1.64,3.32 L1.64,15 L13.32,15 L13.32,16.64 L1.64,16.64 C1.1866644,16.64 0.8000016,16.4800016 0.48,16.16 C0.1599984,15.8399984 0,15.4533356 0,15 L0,3.32 L1.64,3.32 Z" id="add"></path>
            </g>
        </g>
    </g>
</svg>