<?xml version="1.0" encoding="UTF-8"?>
<svg width="14px" height="18px" viewBox="0 0 14 18" version="1.1" xmlns="http://www.w3.org/2000/svg" xmlns:xlink="http://www.w3.org/1999/xlink">
    <!-- Generator: Sketch 53.2 (72643) - https://sketchapp.com -->
    <title>attach</title>
    <desc>Created with Sketch.</desc>
    <g id="App" stroke="none" stroke-width="1" fill="none" fill-rule="evenodd">
        <g id="Clinet-/-Push-to-cloud" transform="translate(-651.000000, -743.000000)" fill="#295DD9">
            <path d="M661.76,747 L663,747 L663,756.56 C663,757.400004 662.796669,758.17333 662.39,758.88 C661.983331,759.58667 661.430003,760.146665 660.73,760.56 C660.029997,760.973335 659.266671,761.18 658.44,761.18 C657.613329,761.18 656.84667,760.973335 656.14,760.56 C655.43333,760.146665 654.870002,759.58667 654.45,758.88 C654.029998,758.17333 653.82,757.400004 653.82,756.56 L653.82,746.18 C653.82,745.579997 653.973332,745.023336 654.28,744.51 C654.586668,743.996664 654.996664,743.586668 655.51,743.28 C656.023336,742.973332 656.579997,742.82 657.18,742.82 C657.780003,742.82 658.333331,742.969998 658.84,743.27 C659.346669,743.570001 659.749998,743.979997 660.05,744.5 C660.350001,745.020003 660.5,745.579997 660.5,746.18 L660.5,754.92 C660.5,755.293335 660.406668,755.639998 660.22,755.96 C660.033332,756.280002 659.783335,756.533332 659.47,756.72 C659.156665,756.906668 658.813335,757 658.44,757 C658.066665,757 657.716668,756.906668 657.39,756.72 C657.063332,756.533332 656.803334,756.280002 656.61,755.96 C656.416666,755.639998 656.32,755.293335 656.32,754.92 L656.32,747 L657.58,747 L657.58,754.92 C657.58,755.160001 657.663333,755.356666 657.83,755.51 C657.996668,755.663334 658.199999,755.74 658.44,755.74 C658.680001,755.74 658.876666,755.663334 659.03,755.51 C659.183334,755.356666 659.26,755.160001 659.26,754.92 L659.26,746.18 C659.26,745.806665 659.166668,745.456668 658.98,745.13 C658.793332,744.803332 658.540002,744.543334 658.22,744.35 C657.899998,744.156666 657.553335,744.06 657.18,744.06 C656.806665,744.06 656.460002,744.156666 656.14,744.35 C655.819998,744.543334 655.563334,744.803332 655.37,745.13 C655.176666,745.456668 655.08,745.806665 655.08,746.18 L655.08,756.56 C655.08,757.160003 655.233332,757.719997 655.54,758.24 C655.846668,758.760003 656.256664,759.173332 656.77,759.48 C657.283336,759.786668 657.839997,759.94 658.44,759.94 C659.040003,759.94 659.593331,759.786668 660.1,759.48 C660.606669,759.173332 661.009999,758.760003 661.31,758.24 C661.610001,757.719997 661.76,757.160003 661.76,756.56 L661.76,747 Z" id="attach" transform="translate(658.410000, 752.000000) rotate(30.000000) translate(-658.410000, -752.000000) "></path>
        </g>
    </g>
</svg>