<?xml version="1.0" encoding="UTF-8"?>
<svg width="16px" height="18px" viewBox="0 0 16 18" version="1.1" xmlns="http://www.w3.org/2000/svg" xmlns:xlink="http://www.w3.org/1999/xlink">
    <!-- Generator: Sketch 53.2 (72643) - https://sketchapp.com -->
    <title>client</title>
    <desc>Created with Sketch.</desc>
    <g id="Symbols" stroke="none" stroke-width="1" fill="none" fill-rule="evenodd">
        <g id="UI-/-Add-interview-/-1" transform="translate(-15.000000, -147.000000)" fill="#9B9B9B" fill-rule="nonzero">
            <g id="Icons-/-Time-/-Normal-Copy-5" transform="translate(15.000000, 147.000000)">
                <path d="M13.3333333,16 L13.3333333,14.7413333 C13.3333333,14.1866639 13.0062255,13.6817801 12.352,13.2266667 C11.7973306,12.8426647 11.0720045,12.53689 10.176,12.3093333 C9.37955157,12.0959989 8.65422549,11.9893333 8,11.9893333 C7.34577451,11.9893333 6.62044843,12.0959989 5.824,12.3093333 C4.92799552,12.53689 4.20266944,12.8426647 3.648,13.2266667 C2.99377451,13.6817801 2.66666667,14.1866639 2.66666667,14.7413333 L2.66666667,16 L13.3333333,16 Z M8,5.33333333 C7.53066432,5.33333333 7.08977984,5.45422101 6.67733333,5.696 C6.26488683,5.93777899 5.93777899,6.26488683 5.696,6.67733333 C5.45422101,7.08977984 5.33333333,7.53066432 5.33333333,8 C5.33333333,8.46933568 5.45422101,8.91022016 5.696,9.32266667 C5.93777899,9.73511317 6.26488683,10.062221 6.67733333,10.304 C7.08977984,10.545779 7.53066432,10.6666667 8,10.6666667 C8.46933568,10.6666667 8.91022016,10.545779 9.32266667,10.304 C9.73511317,10.062221 10.062221,9.73511317 10.304,9.32266667 C10.545779,8.91022016 10.6666667,8.46933568 10.6666667,8 C10.6666667,7.53066432 10.545779,7.08977984 10.304,6.67733333 C10.062221,6.26488683 9.73511317,5.93777899 9.32266667,5.696 C8.91022016,5.45422101 8.46933568,5.33333333 8,5.33333333 Z M8,1.792 C7.75822101,1.792 7.55200085,1.87733248 7.38133333,2.048 C7.21066581,2.21866752 7.12533333,2.42488768 7.12533333,2.66666667 C7.12533333,2.90844565 7.21066581,3.12177685 7.38133333,3.30666667 C7.55200085,3.49155648 7.75822101,3.584 8,3.584 C8.24177899,3.584 8.44799915,3.49155648 8.61866667,3.30666667 C8.78933419,3.12177685 8.87466667,2.90844565 8.87466667,2.66666667 C8.87466667,2.42488768 8.78933419,2.21866752 8.61866667,2.048 C8.44799915,1.87733248 8.24177899,1.792 8,1.792 Z M14.208,1.792 C14.691558,1.792 15.1111093,1.969776 15.4666667,2.32533333 C15.822224,2.68089067 16,3.10044203 16,3.584 L16,16 C16,16.483558 15.822224,16.9031093 15.4666667,17.2586667 C15.1111093,17.614224 14.691558,17.792 14.208,17.792 L1.792,17.792 C1.30844203,17.792 0.888890667,17.614224 0.533333333,17.2586667 C0.177776,16.9031093 0,16.483558 0,16 L0,3.584 C0,3.10044203 0.177776,2.68089067 0.533333333,2.32533333 C0.888890667,1.969776 1.30844203,1.792 1.792,1.792 L5.504,1.792 C5.68888981,1.26577515 6.00533109,0.835557227 6.45333333,0.501333333 C6.90133557,0.16710944 7.41688597,0 8,0 C8.58311403,0 9.09866443,0.16710944 9.54666667,0.501333333 C9.99466891,0.835557227 10.3111102,1.26577515 10.496,1.792 L14.208,1.792 Z" id="client"></path>
            </g>
        </g>
    </g>
</svg>