<?xml version="1.0" encoding="UTF-8"?>
<svg width="17px" height="17px" viewBox="0 0 17 17" version="1.1" xmlns="http://www.w3.org/2000/svg" xmlns:xlink="http://www.w3.org/1999/xlink">
    <!-- Generator: Sketch 52.3 (67297) - http://www.bohemiancoding.com/sketch -->
    <title>clock</title>
    <desc>Created with Sketch.</desc>
    <g id="Symbols" stroke="none" stroke-width="1" fill="none" fill-rule="evenodd">
        <g id="UI-/-Interview" transform="translate(-14.000000, -102.000000)" fill="#9B9B9B" fill-rule="nonzero">
            <g id="Icons-/-Calendar-/-Normal-Copy" transform="translate(14.000000, 102.000000)">
                <path d="M8.76,4.14 L8.76,8.52 L12.5,10.74 L11.88,11.8 L7.5,9.14 L7.5,4.14 L8.76,4.14 Z M8.32,15 C9.520006,15 10.6399948,14.6933364 11.68,14.08 C12.6933384,13.4933304 13.4933304,12.6933384 14.08,11.68 C14.6933364,10.6399948 15,9.520006 15,8.32 C15,7.119994 14.6933364,6.0000052 14.08,4.96 C13.4933304,3.9466616 12.6933384,3.1466696 11.68,2.56 C10.6399948,1.9466636 9.520006,1.64 8.32,1.64 C7.119994,1.64 6.0000052,1.9466636 4.96,2.56 C3.9466616,3.1466696 3.1466696,3.9466616 2.56,4.96 C1.9466636,6.0000052 1.64,7.119994 1.64,8.32 C1.64,9.520006 1.9466636,10.6399948 2.56,11.68 C3.1466696,12.6933384 3.9466616,13.4933304 4.96,14.08 C6.0000052,14.6933364 7.119994,15 8.32,15 Z M8.32,0 C9.8400076,0 11.2466602,0.3799962 12.54,1.14 C13.7933396,1.8600036 14.7799964,2.8466604 15.5,4.1 C16.2600038,5.3933398 16.64,6.7999924 16.64,8.32 C16.64,9.8400076 16.2600038,11.2466602 15.5,12.54 C14.7799964,13.7933396 13.7933396,14.7799964 12.54,15.5 C11.2466602,16.2600038 9.8400076,16.64 8.32,16.64 C6.7999924,16.64 5.3933398,16.2600038 4.1,15.5 C2.8466604,14.766663 1.8600036,13.7733396 1.14,12.52 C0.3799962,11.2266602 0,9.8266742 0,8.32 C0,6.8133258 0.3799962,5.4133398 1.14,4.12 C1.873337,2.8666604 2.8666604,1.873337 4.12,1.14 C5.4133398,0.3799962 6.8133258,0 8.32,0 Z" id="clock"></path>
            </g>
        </g>
    </g>
</svg>