<?xml version="1.0" encoding="UTF-8"?>
<svg width="17px" height="17px" viewBox="0 0 17 17" version="1.1" xmlns="http://www.w3.org/2000/svg" xmlns:xlink="http://www.w3.org/1999/xlink">
    <!-- Generator: Sketch 52.3 (67297) - http://www.bohemiancoding.com/sketch -->
    <title>cog</title>
    <desc>Created with Sketch.</desc>
    <g id="Symbols" stroke="none" stroke-width="1" fill="none" fill-rule="evenodd">
        <g id="UI-/-Add-interview" transform="translate(-14.000000, -220.000000)" fill="#9B9B9B" fill-rule="nonzero">
            <g id="Icons-/-Time-/-Normal-Copy-4" transform="translate(14.000000, 220.000000)">
                <path d="M8.10400005,11.24 C8.62400265,11.24 9.11066445,11.106668 9.56400005,10.84 C10.0173357,10.573332 10.3773321,10.2166689 10.6440001,9.77 C10.9106681,9.3233311 11.0440001,8.8400026 11.0440001,8.32 C11.0440001,7.7999974 10.9106681,7.3133356 10.6440001,6.86 C10.3773321,6.4066644 10.0173357,6.046668 9.56400005,5.78 C9.11066445,5.513332 8.62400265,5.38 8.10400005,5.38 C7.58399745,5.38 7.10066895,5.513332 6.65400005,5.78 C6.20733115,6.046668 5.85066805,6.4066644 5.58400005,6.86 C5.31733205,7.3133356 5.18400005,7.7999974 5.18400005,8.32 C5.18400005,8.8400026 5.31733205,9.3233311 5.58400005,9.77 C5.85066805,10.2166689 6.20733115,10.573332 6.65400005,10.84 C7.10066895,11.106668 7.58399745,11.24 8.10400005,11.24 Z M14.3240001,9.14 L16.0640001,10.5 C16.1440005,10.566667 16.1906667,10.6533328 16.2040001,10.76 C16.2173335,10.8666672 16.1973337,10.9666662 16.1440001,11.06 L14.4640001,13.94 C14.4106665,14.0333338 14.3406672,14.0933332 14.2540001,14.12 C14.167333,14.1466668 14.0706673,14.1400002 13.9640001,14.1 L11.9040001,13.28 C11.3706641,13.6666686 10.8973355,13.9399992 10.4840001,14.1 L10.1840001,16.28 C10.1573333,16.3866672 10.1073338,16.473333 10.0340001,16.54 C9.96066635,16.606667 9.87733385,16.64 9.78400005,16.64 L6.42400005,16.64 C6.33066625,16.64 6.24733375,16.606667 6.17400005,16.54 C6.10066635,16.473333 6.05733345,16.3866672 6.04400005,16.28 L5.72400005,14.1 C5.16399725,13.8733322 4.69733525,13.6000016 4.32400005,13.28 L2.24400005,14.1 C2.03066565,14.1933338 1.86400065,14.140001 1.74400005,13.94 L0.0640000512,11.06 C0.0106664512,10.9666662 -0.0093333488,10.8666672 0.0040000512,10.76 C0.0173334512,10.6533328 0.0639996512,10.566667 0.144000051,10.5 L1.90400005,9.14 C1.87733325,8.9533324 1.86400005,8.6800018 1.86400005,8.32 C1.86400005,7.9599982 1.87733325,7.6866676 1.90400005,7.5 L0.144000051,6.14 C0.0639996512,6.073333 0.0173334512,5.9866672 0.0040000512,5.88 C-0.0093333488,5.7733328 0.0106664512,5.6733338 0.0640000512,5.58 L1.74400005,2.7 C1.86400065,2.499999 2.03066565,2.4466662 2.24400005,2.54 L4.32400005,3.36 C4.80400245,2.9999982 5.27066445,2.7266676 5.72400005,2.54 L6.04400005,0.36 C6.05733345,0.2533328 6.10066635,0.166667 6.17400005,0.1 C6.24733375,0.033333 6.33066625,0 6.42400005,0 L9.78400005,0 C9.87733385,0 9.96066635,0.033333 10.0340001,0.1 C10.1073338,0.166667 10.1573333,0.2533328 10.1840001,0.36 L10.4840001,2.54 C11.0040027,2.740001 11.4773313,3.0133316 11.9040001,3.36 L13.9640001,2.54 C14.0706673,2.4999998 14.167333,2.4933332 14.2540001,2.52 C14.3406672,2.5466668 14.4106665,2.6066662 14.4640001,2.7 L16.1440001,5.58 C16.1973337,5.6733338 16.2173335,5.7733328 16.2040001,5.88 C16.1906667,5.9866672 16.1440005,6.073333 16.0640001,6.14 L14.3240001,7.5 C14.3506669,7.6866676 14.3640001,7.9599982 14.3640001,8.32 C14.3640001,8.6800018 14.3506669,8.9533324 14.3240001,9.14 Z" id="cog"></path>
            </g>
        </g>
    </g>
</svg>