<?xml version="1.0" encoding="UTF-8"?>
<svg width="12px" height="16px" viewBox="0 0 12 16" version="1.1" xmlns="http://www.w3.org/2000/svg" xmlns:xlink="http://www.w3.org/1999/xlink">
    <!-- Generator: Sketch 52.3 (67297) - http://www.bohemiancoding.com/sketch -->
    <title>delete</title>
    <desc>Created with Sketch.</desc>
    <g id="Page-1" stroke="none" stroke-width="1" fill="none" fill-rule="evenodd">
        <g id="Staff---1" transform="translate(-1301.000000, -381.000000)" fill="#9B9B9B" fill-rule="nonzero">
            <g id="Group-2" transform="translate(1285.000000, 324.000000)">
                <g id="Icons-/-Arrow-/-Up-/-Active-Copy" transform="translate(16.000000, 57.000000)">
                    <path d="M8.94,1.32 L11.82,1.32 L11.82,3 L0.18,3 L0.18,1.32 L3.08,1.32 L3.94,0.5 L8.08,0.5 L8.94,1.32 Z M3.04,7.88 L4.82,9.68 L3.08,11.44 L4.24,12.6 L6,10.86 L7.76,12.6 L8.94,11.44 L7.18,9.68 L8.94,7.88 L7.76,6.7 L6,8.5 L4.24,6.7 L3.04,7.88 Z M1,13.82 L1,3.82 L11,3.82 L11,13.82 C11,14.2733356 10.833335,14.666665 10.5,15 C10.166665,15.333335 9.7733356,15.5 9.32,15.5 L2.68,15.5 C2.2266644,15.5 1.833335,15.333335 1.5,15 C1.166665,14.666665 1,14.2733356 1,13.82 Z" id="delete"></path>
                </g>
            </g>
        </g>
    </g>
</svg>