<?xml version="1.0" encoding="UTF-8"?>
<svg width="21px" height="21px" viewBox="0 0 21 21" version="1.1" xmlns="http://www.w3.org/2000/svg" xmlns:xlink="http://www.w3.org/1999/xlink">
    <!-- Generator: Sketch 52.3 (67297) - http://www.bohemiancoding.com/sketch -->
    <title>fullscreen</title>
    <desc>Created with Sketch.</desc>
    <g id="Page-1" stroke="none" stroke-width="1" fill="none" fill-rule="evenodd">
        <g id="Video-tutorial---2" transform="translate(-1136.000000, -832.000000)" fill="#9B9B9B" fill-rule="nonzero">
            <g id="Group" transform="translate(197.000000, 143.000000)">
                <g id="Icons-/-Play-/-Active-Copy-2" transform="translate(939.000000, 689.000000)">
                    <path d="M13.5714286,0.714285714 L20.6685714,0.714285714 L20.6685714,7.81142857 L17.8571429,7.81142857 L17.8571429,3.52571429 L13.5714286,3.52571429 L13.5714286,0.714285714 Z M17.8571429,17.8571429 L17.8571429,13.5714286 L20.6685714,13.5714286 L20.6685714,20.6685714 L13.5714286,20.6685714 L13.5714286,17.8571429 L17.8571429,17.8571429 Z M0.714285714,7.81142857 L0.714285714,0.714285714 L7.81142857,0.714285714 L7.81142857,3.52571429 L3.52571429,3.52571429 L3.52571429,7.81142857 L0.714285714,7.81142857 Z M3.52571429,13.5714286 L3.52571429,17.8571429 L7.81142857,17.8571429 L7.81142857,20.6685714 L0.714285714,20.6685714 L0.714285714,13.5714286 L3.52571429,13.5714286 Z" id="fullscreen"></path>
                </g>
            </g>
        </g>
    </g>
</svg>