<?xml version="1.0" encoding="UTF-8"?>
<svg width="14px" height="4px" viewBox="0 0 14 4" version="1.1" xmlns="http://www.w3.org/2000/svg" xmlns:xlink="http://www.w3.org/1999/xlink">
    <!-- Generator: Sketch 52.3 (67297) - http://www.bohemiancoding.com/sketch -->
    <title>more</title>
    <desc>Created with Sketch.</desc>
    <g id="Symbols" stroke="none" stroke-width="1" fill="none" fill-rule="evenodd">
        <g id="Rectangle-2-Copy-2" transform="translate(-1118.000000, -33.000000)" fill="#9B9B9B" fill-rule="nonzero">
            <g id="Icons-/-Other-/-Normal" transform="translate(1118.000000, 33.000000)">
                <path d="M6.68,5 C7.1333356,5 7.526665,5.166665 7.86,5.5 C8.193335,5.833335 8.36,6.2266644 8.36,6.68 C8.36,7.1333356 8.193335,7.526665 7.86,7.86 C7.526665,8.193335 7.1333356,8.36 6.68,8.36 C6.2266644,8.36 5.833335,8.193335 5.5,7.86 C5.166665,7.526665 5,7.1333356 5,6.68 C5,6.2266644 5.166665,5.833335 5.5,5.5 C5.833335,5.166665 6.2266644,5 6.68,5 Z M8.36,1.68 C8.36,2.1333356 8.193335,2.526665 7.86,2.86 C7.526665,3.193335 7.1333356,3.36 6.68,3.36 C6.2266644,3.36 5.833335,3.193335 5.5,2.86 C5.166665,2.526665 5,2.1333356 5,1.68 C5,1.2266644 5.166665,0.833335 5.5,0.5 C5.833335,0.166665 6.2266644,0 6.68,0 C7.1333356,0 7.526665,0.166665 7.86,0.5 C8.193335,0.833335 8.36,1.2266644 8.36,1.68 Z M6.68,-1.64 C6.2266644,-1.64 5.833335,-1.806665 5.5,-2.14 C5.166665,-2.473335 5,-2.8666644 5,-3.32 C5,-3.7733356 5.166665,-4.166665 5.5,-4.5 C5.833335,-4.833335 6.2266644,-5 6.68,-5 C7.1333356,-5 7.526665,-4.833335 7.86,-4.5 C8.193335,-4.166665 8.36,-3.7733356 8.36,-3.32 C8.36,-2.8666644 8.193335,-2.473335 7.86,-2.14 C7.526665,-1.806665 7.1333356,-1.64 6.68,-1.64 Z" id="more" transform="translate(6.680000, 1.680000) rotate(90.000000) translate(-6.680000, -1.680000) "></path>
            </g>
        </g>
    </g>
</svg>