<?xml version="1.0" encoding="UTF-8"?>
<svg width="16px" height="18px" viewBox="0 0 16 18" version="1.1" xmlns="http://www.w3.org/2000/svg" xmlns:xlink="http://www.w3.org/1999/xlink">
    <!-- Generator: Sketch 52.3 (67297) - http://www.bohemiancoding.com/sketch -->
    <title>nav-qa</title>
    <desc>Created with Sketch.</desc>
    <g id="Symbols" stroke="none" stroke-width="1" fill="none" fill-rule="evenodd">
        <g id="Navigation-/-Interview" transform="translate(-30.000000, -741.000000)" fill="#9B9B9B" fill-rule="nonzero">
            <g id="Nav-tab-Copy" transform="translate(0.000000, 715.000000)">
                <g id="Icons-/-Arrow-/-Up-/-Active" transform="translate(30.000000, 26.000000)">
                    <path d="M8,5.68 C7.5599978,5.68 7.1466686,5.5666678 6.76,5.34 C6.3733314,5.1133322 6.0666678,4.8066686 5.84,4.42 C5.6133322,4.0333314 5.5,3.6200022 5.5,3.18 C5.5,2.7399978 5.6133322,2.3266686 5.84,1.94 C6.0666678,1.5533314 6.3733314,1.2466678 6.76,1.02 C7.1466686,0.7933322 7.5599978,0.68 8,0.68 C8.4400022,0.68 8.8533314,0.7933322 9.24,1.02 C9.6266686,1.2466678 9.9333322,1.5533314 10.16,1.94 C10.3866678,2.3266686 10.5,2.7399978 10.5,3.18 C10.5,3.6200022 10.3866678,4.0333314 10.16,4.42 C9.9333322,4.8066686 9.6266686,5.1133322 9.24,5.34 C8.8533314,5.5666678 8.4400022,5.68 8,5.68 Z M8,8.6 C9.000005,7.6799954 10.133327,6.9666692 11.4,6.46 C12.7200066,5.9399974 14.0866596,5.68 15.5,5.68 L15.5,14.82 C14.0866596,14.82 12.7200066,15.086664 11.4,15.62 C10.133327,16.1400026 9.000005,16.866662 8,17.8 C6.999995,16.866662 5.866673,16.1400026 4.6,15.62 C3.2933268,15.086664 1.9266738,14.82 0.5,14.82 L0.5,5.68 C1.9266738,5.68 3.2933268,5.9399974 4.6,6.46 C5.866673,6.9666692 6.999995,7.6799954 8,8.6 Z" id="nav-qa"></path>
                </g>
            </g>
        </g>
    </g>
</svg>