<?xml version="1.0" encoding="UTF-8"?>
<svg width="18px" height="12px" viewBox="0 0 18 12" version="1.1" xmlns="http://www.w3.org/2000/svg" xmlns:xlink="http://www.w3.org/1999/xlink">
    <!-- Generator: Sketch 52.3 (67297) - http://www.bohemiancoding.com/sketch -->
    <title>nav-staff</title>
    <desc>Created with Sketch.</desc>
    <g id="Symbols" stroke="none" stroke-width="1" fill="none" fill-rule="evenodd">
        <g id="Navigation-/-Interview" transform="translate(-29.000000, -99.000000)" fill="#9B9B9B" fill-rule="nonzero">
            <g id="Nav-tab" transform="translate(0.000000, 70.000000)">
                <g id="Icons-/-Arrow-/-Up-/-Active" transform="translate(29.000000, 29.000000)">
                    <path d="M12.254902,6.84536082 C12.9607878,6.84536082 13.7450937,6.95532536 14.6078431,7.17525773 C15.5620963,7.43642742 16.3398663,7.77319381 16.9411765,8.18556701 C17.6470624,8.68041485 18,9.23711031 18,9.8556701 L18,12 L13.0980392,12 L13.0980392,9.8556701 C13.0980392,8.68727938 12.5620969,7.69759856 11.4901961,6.88659794 C11.6732035,6.85910639 11.9281029,6.84536082 12.254902,6.84536082 Z M5.74509804,6.84536082 C6.45098392,6.84536082 7.22875392,6.95532536 8.07843137,7.17525773 C9.03268451,7.43642742 9.80391863,7.77319381 10.3921569,8.18556701 C11.0980427,8.68041485 11.4509804,9.23711031 11.4509804,9.8556701 L11.4509804,12 L0,12 L0,9.8556701 C0,9.23711031 0.352937647,8.68041485 1.05882353,8.18556701 C1.66013373,7.77319381 2.43790373,7.43642742 3.39215686,7.17525773 C4.25490627,6.95532536 5.03921216,6.84536082 5.74509804,6.84536082 Z M5.74509804,5.15463918 C5.31372333,5.15463918 4.90849863,5.03780186 4.52941176,4.80412371 C4.1503249,4.57044557 3.84967431,4.25429753 3.62745098,3.8556701 C3.40522765,3.45704268 3.29411765,3.0309301 3.29411765,2.57731959 C3.29411765,2.12370907 3.40522765,1.69759649 3.62745098,1.29896907 C3.84967431,0.900341649 4.1503249,0.584193608 4.52941176,0.350515464 C4.90849863,0.11683732 5.31372333,0 5.74509804,0 C6.17647275,0 6.57842951,0.11683732 6.95098039,0.350515464 C7.32353127,0.584193608 7.61764598,0.896905258 7.83333333,1.28865979 C8.04902069,1.68041433 8.15686275,2.1099633 8.15686275,2.57731959 C8.15686275,3.04467588 8.04902069,3.47422485 7.83333333,3.86597938 C7.61764598,4.25773392 7.32353127,4.57044557 6.95098039,4.80412371 C6.57842951,5.03780186 6.17647275,5.15463918 5.74509804,5.15463918 Z M12.254902,5.15463918 C11.8235273,5.15463918 11.4183025,5.03780186 11.0392157,4.80412371 C10.6601288,4.57044557 10.3594782,4.25429753 10.1372549,3.8556701 C9.91503157,3.45704268 9.80392157,3.0309301 9.80392157,2.57731959 C9.80392157,2.12370907 9.91503157,1.69759649 10.1372549,1.29896907 C10.3594782,0.900341649 10.6601288,0.584193608 11.0392157,0.350515464 C11.4183025,0.11683732 11.8235273,0 12.254902,0 C12.6862767,0 13.0915014,0.11683732 13.4705882,0.350515464 C13.8496751,0.584193608 14.1503257,0.900341649 14.372549,1.29896907 C14.5947724,1.69759649 14.7058824,2.12370907 14.7058824,2.57731959 C14.7058824,3.0309301 14.5947724,3.45704268 14.372549,3.8556701 C14.1503257,4.25429753 13.8496751,4.57044557 13.4705882,4.80412371 C13.0915014,5.03780186 12.6862767,5.15463918 12.254902,5.15463918 Z" id="nav-staff"></path>
                </g>
            </g>
        </g>
    </g>
</svg>