<?xml version="1.0" encoding="UTF-8"?>
<svg width="20px" height="14px" viewBox="0 0 20 14" version="1.1" xmlns="http://www.w3.org/2000/svg" xmlns:xlink="http://www.w3.org/1999/xlink">
    <!-- Generator: Sketch 52.3 (67297) - http://www.bohemiancoding.com/sketch -->
    <title>nav-pushCloud</title>
    <desc>Created with Sketch.</desc>
    <g id="Symbols" stroke="none" stroke-width="1" fill="none" fill-rule="evenodd">
        <g id="Navigation-/-Interview" transform="translate(-28.000000, -167.000000)" fill="#9B9B9B" fill-rule="nonzero">
            <g id="Nav-tab-Copy-5" transform="translate(0.000000, 140.000000)">
                <g id="Icons-/-Arrow-/-Up-/-Active" transform="translate(28.000000, 27.000000)">
                    <path d="M8.32,11.18 L13.82,5.68 L12.66,4.5 L8.32,8.8 L6.6,7.08 L5.44,8.24 L8.32,11.18 Z M16.14,5.36 C16.8466702,5.4133336 17.4933304,5.6299981 18.08,6.01 C18.6666696,6.3900019 19.1333316,6.8866636 19.48,7.5 C19.8266684,8.1133364 20,8.7799964 20,9.5 C20,10.2600038 19.8133352,10.9599968 19.44,11.6 C19.0666648,12.2400032 18.5600032,12.7466648 17.92,13.12 C17.2799968,13.4933352 16.5800038,13.68 15.82,13.68 L5,13.68 C4.0933288,13.68 3.2566705,13.4566689 2.49,13.01 C1.7233295,12.5633311 1.1166689,11.9566705 0.67,11.19 C0.2233311,10.4233295 0,9.5866712 0,8.68 C0,7.8399958 0.1966647,7.0566703 0.59,6.33 C0.9833353,5.6033297 1.5199966,5.0100023 2.2,4.55 C2.8800034,4.0899977 3.6333292,3.8133338 4.46,3.72 C4.993336,2.6933282 5.7466618,1.8733364 6.72,1.26 C7.720005,0.6333302 8.8133274,0.32 10,0.32 C11.000005,0.32 11.933329,0.5399978 12.8,0.98 C13.6533376,1.4066688 14.3733304,2.0033295 14.96,2.77 C15.5466696,3.5366705 15.939999,4.3999952 16.14,5.36 Z" id="nav-pushCloud"></path>
                </g>
            </g>
        </g>
    </g>
</svg>