<?xml version="1.0" encoding="UTF-8"?>
<svg width="18px" height="16px" viewBox="0 0 18 16" version="1.1" xmlns="http://www.w3.org/2000/svg" xmlns:xlink="http://www.w3.org/1999/xlink">
    <!-- Generator: Sketch 52.3 (67297) - http://www.bohemiancoding.com/sketch -->
    <title>print</title>
    <desc>Created with Sketch.</desc>
    <g id="Symbols" stroke="none" stroke-width="1" fill="none" fill-rule="evenodd">
        <g id="Edit-Delete-2" transform="translate(-13.000000, -57.000000)" fill="#9B9B9B" fill-rule="nonzero">
            <g id="Group-2">
                <g id="Icons-/-Arrow-/-Up-/-Active-Copy" transform="translate(13.000000, 57.000000)">
                    <path d="M14,0.5 L14,3.82 L4,3.82 L4,0.5 L14,0.5 Z M14.82,8 C15.0600012,8 15.2633325,7.9200008 15.43,7.76 C15.5966675,7.5999992 15.68,7.4066678 15.68,7.18 C15.68,6.9533322 15.5966675,6.7533342 15.43,6.58 C15.2633325,6.4066658 15.0600012,6.32 14.82,6.32 C14.5799988,6.32 14.3833341,6.4033325 14.23,6.57 C14.0766659,6.7366675 14,6.9399988 14,7.18 C14,7.4200012 14.0799992,7.6166659 14.24,7.77 C14.4000008,7.9233341 14.5933322,8 14.82,8 Z M12.32,13.82 L12.32,9.68 L5.68,9.68 L5.68,13.82 L12.32,13.82 Z M14.82,4.68 C15.2600022,4.68 15.6733314,4.7933322 16.06,5.02 C16.4466686,5.2466678 16.7533322,5.5533314 16.98,5.94 C17.2066678,6.3266686 17.32,6.7399978 17.32,7.18 L17.32,12.18 L14,12.18 L14,15.5 L4,15.5 L4,12.18 L0.68,12.18 L0.68,7.18 C0.68,6.7399978 0.7933322,6.3266686 1.02,5.94 C1.2466678,5.5533314 1.5533314,5.2466678 1.94,5.02 C2.3266686,4.7933322 2.7399978,4.68 3.18,4.68 L14.82,4.68 Z" id="print"></path>
                </g>
            </g>
        </g>
    </g>
</svg>