<?xml version="1.0" encoding="UTF-8"?>
<svg width="20px" height="20px" viewBox="0 0 20 20" version="1.1" xmlns="http://www.w3.org/2000/svg" xmlns:xlink="http://www.w3.org/1999/xlink">
    <!-- Generator: Sketch 52.3 (67297) - http://www.bohemiancoding.com/sketch -->
    <title>search</title>
    <desc>Created with Sketch.</desc>
    <g id="Page-1" stroke="none" stroke-width="1" fill="none" fill-rule="evenodd">
        <g id="Interviews---1" transform="translate(-1386.000000, -95.000000)" fill="#9B9B9B" fill-rule="nonzero">
            <g id="Icons-/-Black-/-Search-/-Normal" transform="translate(1386.000000, 95.000000)">
                <path d="M7.36901235,12.2633333 C8.25889334,12.2633333 9.07896744,12.0408664 9.82925926,11.5959259 C10.5795511,11.1509854 11.1727962,10.5533782 11.6090123,9.80308642 C12.0452285,9.0527946 12.2633333,8.2327205 12.2633333,7.34283951 C12.2633333,6.45295851 12.0452285,5.63288441 11.6090123,4.88259259 C11.1727962,4.13230078 10.5795511,3.53905568 9.82925926,3.10283951 C9.07896744,2.66662333 8.25889334,2.44851852 7.36901235,2.44851852 C6.47913135,2.44851852 5.65905725,2.66662333 4.90876543,3.10283951 C4.15847361,3.53905568 3.56086642,4.13230078 3.11592593,4.88259259 C2.67098543,5.63288441 2.44851852,6.45295851 2.44851852,7.34283951 C2.44851852,8.2327205 2.67098543,9.0527946 3.11592593,9.80308642 C3.56086642,10.5533782 4.15847361,11.1509854 4.90876543,11.5959259 C5.65905725,12.0408664 6.47913135,12.2633333 7.36901235,12.2633333 Z M13.9122222,12.2633333 L19.33,17.6811111 L17.6811111,19.33 L12.2633333,13.8860494 L12.2633333,13.0223457 L11.9492593,12.7344444 C11.3385566,13.2753525 10.6362591,13.6897516 9.84234568,13.9776543 C9.04843224,14.265557 8.22399604,14.4095062 7.36901235,14.4095062 C6.07781247,14.4095062 4.88696019,14.0954352 3.79641975,13.467284 C2.70587932,12.8391327 1.84654635,11.992886 1.21839506,10.9285185 C0.572795126,9.82925376 0.25,8.63403938 0.25,7.34283951 C0.25,6.05163963 0.56843303,4.86078735 1.20530864,3.77024691 C1.84218425,2.67970648 2.70587932,1.82037351 3.79641975,1.19222222 C4.88696019,0.564070933 6.07781247,0.25 7.36901235,0.25 C8.66021222,0.25 9.8554266,0.572795126 10.9546914,1.21839506 C12.0190588,1.84654635 12.8609434,2.70151722 13.4803704,3.78333333 C14.0997973,4.86514944 14.4095062,6.05163963 14.4095062,7.34283951 C14.4095062,8.21527185 14.265557,9.04843224 13.9776543,9.84234568 C13.6897516,10.6362591 13.2753525,11.3385566 12.7344444,11.9492593 L13.0223457,12.2633333 L13.9122222,12.2633333 Z" id="search"></path>
            </g>
        </g>
    </g>
</svg>